<svg xmlns="http://www.w3.org/2000/svg" viewBox="0 0 1024 1024" width="1024" height="1024">
  <!-- Miqaat app icon · master. Generated by art/make_icon.py — edit the script, not this file. -->
  <defs>
    <radialGradient id="ground" cx="50%" cy="34%" r="78%"><stop offset="0" stop-color="#2C2566"/><stop offset="0.55" stop-color="#191B48"/><stop offset="1" stop-color="#0A0C28"/></radialGradient>
    <radialGradient id="glow" cx="50%" cy="66%" r="44%"><stop offset="0" stop-color="#FFB25A" stop-opacity="0.75"/><stop offset="0.55" stop-color="#E77E48" stop-opacity="0.25"/><stop offset="1" stop-color="#E77E48" stop-opacity="0"/></radialGradient>
    <linearGradient id="door" x1="0" y1="0" x2="0" y2="1"><stop offset="0" stop-color="#FFF1D6"/><stop offset="0.4" stop-color="#FFC77E"/><stop offset="1" stop-color="#F0873A"/></linearGradient>
    <linearGradient id="band" x1="0" y1="0" x2="0" y2="1"><stop offset="0" stop-color="#FBEBC6" stop-opacity="0.95"/><stop offset="0.5" stop-color="#E7C282" stop-opacity="0.9"/><stop offset="1" stop-color="#B8893C" stop-opacity="0.9"/></linearGradient>
    <linearGradient id="glass" x1="0" y1="0" x2="0" y2="1"><stop offset="0" stop-color="#FFFFFF" stop-opacity="0.16"/><stop offset="1" stop-color="#FFFFFF" stop-opacity="0.04"/></linearGradient>
    <linearGradient id="floor" x1="0" y1="0" x2="0" y2="1"><stop offset="0" stop-color="#F9B066" stop-opacity="0.95"/><stop offset="1" stop-color="#F9B066" stop-opacity="0.15"/></linearGradient>
    <linearGradient id="gold" x1="0" y1="0" x2="1" y2="1"><stop offset="0" stop-color="#FFEBB8"/><stop offset="1" stop-color="#D8A74A"/></linearGradient>
    <clipPath id="sq"><rect width="1024" height="1024" rx="228"/></clipPath>
    <clipPath id="leftIn"><path d="M178 930 V560 C178 400 320.0 354.3 390.0 324.3 C460.0 354.3 602 400 602 560 V930 Z"/></clipPath>
    <mask id="crescent"><rect width="1024" height="1024" fill="black"/><circle cx="492" cy="150" r="72" fill="white"/><circle cx="528" cy="127" r="64" fill="black"/></mask>
  </defs>
  <g clip-path="url(#sq)">
    <rect width="1024" height="1024" fill="url(#ground)"/>
    <circle cx="512" cy="700" r="460" fill="url(#glow)"/>
    <path d="M178 930 V560 C178 400 320.0 354.3 390.0 324.3 C460.0 354.3 602 400 602 560 V930 Z" fill="url(#glass)"/><path d="M422 930 V560 C422 400 564.0 354.3 634.0 324.3 C704.0 354.3 846 400 846 560 V930 Z" fill="url(#glass)"/>
    <g clip-path="url(#leftIn)"><path d="M422 930 V560 C422 400 564.0 354.3 634.0 324.3 C704.0 354.3 846 400 846 560 V930 Z" fill="url(#door)"/></g>
    <path d="M472.0 930 L552.0 930 L740 1024 L284 1024 Z" fill="url(#floor)"/>
    <path d="M120 930 V560 C120 400 320.0 276 390.0 246 C460.0 276 660 400 660 560 V930 Z M178 930 V560 C178 400 320.0 354.3 390.0 324.3 C460.0 354.3 602 400 602 560 V930 Z" fill="url(#band)" fill-rule="evenodd"/>
    <path d="M364 930 V560 C364 400 564.0 276 634.0 246 C704.0 276 904 400 904 560 V930 Z M422 930 V560 C422 400 564.0 354.3 634.0 324.3 C704.0 354.3 846 400 846 560 V930 Z" fill="url(#band)" fill-rule="evenodd"/>
    <path d="M178 930 V560 C178 400 320.0 354.3 390.0 324.3 C460.0 354.3 602 400 602 560 V930 Z" fill="none" stroke="#FFF7E3" stroke-opacity="0.55" stroke-width="5"/>
    <path d="M422 930 V560 C422 400 564.0 354.3 634.0 324.3 C704.0 354.3 846 400 846 560 V930 Z" fill="none" stroke="#FFF7E3" stroke-opacity="0.55" stroke-width="5"/>
    <rect width="1024" height="1024" fill="url(#gold)" mask="url(#crescent)"/>
  </g>
</svg>